<svg 
 xmlns="http://www.w3.org/2000/svg"
 xmlns:xlink="http://www.w3.org/1999/xlink"
 width="40px" height="40px">
<path fill-rule="evenodd"  fill="rgb(45, 159, 48)"
 d="M39.881,33.663 C39.241,37.265 36.093,40.000 32.308,40.000 L7.692,40.000 C3.444,40.000 -0.000,36.555 -0.000,32.308 L-0.000,7.691 C-0.000,3.444 3.445,-0.000 7.692,-0.000 L32.308,-0.000 C36.556,-0.000 40.000,3.445 40.000,7.691 L40.000,27.385 L39.881,33.663 ZM17.067,9.000 C11.512,9.000 7.000,12.793 7.000,17.479 C7.000,20.256 8.601,22.736 11.051,24.273 C10.954,24.645 9.790,26.852 10.129,27.150 C10.639,27.497 12.943,25.463 13.259,25.315 C14.423,25.736 15.709,25.959 17.067,25.959 C17.553,25.959 18.038,25.935 18.523,25.860 C18.208,25.141 18.062,24.372 18.062,23.579 C18.062,19.711 21.798,16.587 26.383,16.587 C26.625,16.587 26.868,16.587 27.086,16.612 C26.577,12.322 22.283,9.000 17.067,9.000 ZM26.383,17.231 C22.186,17.231 18.741,20.083 18.741,23.629 C18.741,27.174 22.162,30.051 26.359,30.051 C27.378,30.051 28.372,29.877 29.245,29.579 C29.488,29.703 31.235,31.241 31.623,30.968 C31.890,30.745 30.992,29.083 30.919,28.786 C32.787,27.621 34.000,25.761 34.000,23.653 C34.000,20.108 30.580,17.231 26.383,17.231 ZM29.051,22.463 C28.445,22.488 27.960,21.967 27.960,21.347 C27.960,20.728 28.445,20.232 29.051,20.232 C29.658,20.232 30.143,20.728 30.143,21.347 C30.143,21.967 29.658,22.463 29.051,22.463 ZM23.690,22.463 C23.084,22.488 22.574,21.967 22.598,21.347 C22.598,20.728 23.084,20.232 23.690,20.232 C24.297,20.232 24.782,20.728 24.782,21.347 C24.782,21.967 24.297,22.463 23.690,22.463 ZM20.585,15.967 C19.784,15.967 19.129,15.298 19.129,14.479 C19.129,13.661 19.784,12.992 20.585,12.992 C21.386,12.992 22.040,13.661 22.040,14.479 C22.065,15.298 21.410,15.967 20.585,15.967 ZM13.526,15.967 C12.725,15.967 12.070,15.298 12.070,14.479 C12.070,13.661 12.725,12.992 13.526,12.992 C14.326,12.992 14.981,13.661 14.981,14.479 C14.981,15.298 14.326,15.967 13.526,15.967 Z"/>
</svg>
