<svg 
 xmlns="http://www.w3.org/2000/svg"
 xmlns:xlink="http://www.w3.org/1999/xlink"
 width="40px" height="40px">
<path fill-rule="evenodd"  fill="rgb(27, 131, 220)"
 d="M40.000,27.384 L40.000,7.691 C40.000,3.445 36.556,-0.000 32.308,-0.000 L7.692,-0.000 C3.445,-0.000 -0.000,3.444 -0.000,7.691 L-0.000,32.308 C-0.000,36.555 3.444,40.000 7.692,40.000 L32.308,40.000 C36.093,40.000 39.241,37.265 39.881,33.663 C37.842,32.785 28.999,28.968 24.395,26.766 C20.891,31.010 17.220,33.557 11.687,33.557 C6.154,33.557 2.462,30.154 2.907,25.980 C3.199,23.241 5.077,18.769 13.231,19.538 C17.528,19.944 19.496,20.745 23.005,21.900 C23.906,20.239 24.663,18.409 25.231,16.461 L9.693,16.461 L9.693,14.923 L17.379,14.923 L17.379,12.154 L8.001,12.154 L8.001,10.461 L17.379,10.461 L17.379,6.472 C17.379,6.472 17.468,5.846 18.154,5.846 L22.000,5.846 L22.000,10.461 L32.000,10.461 L32.000,12.154 L22.000,12.154 L22.000,14.923 L30.154,14.923 C29.406,17.978 28.271,20.780 26.845,23.232 C29.217,24.088 40.000,27.384 40.000,27.384 L40.000,27.384 ZM11.077,30.923 C5.231,30.923 4.308,27.231 4.616,25.692 C4.923,24.153 6.616,22.153 9.865,22.153 C13.603,22.153 16.944,23.107 20.960,25.063 C18.143,28.735 14.675,30.923 11.077,30.923 L11.077,30.923 Z"/>
</svg>
